<svg width="6036" height="1089" viewBox="0 0 6036 1089" fill="none" xmlns="http://www.w3.org/2000/svg">
<path d="M1201.19 346C1189.19 346.667 1180.36 348 1174.69 350C1169.36 352 1165.69 355.833 1163.69 361.5C1161.69 367.167 1160.69 376.333 1160.69 389V637C1160.69 649.667 1161.69 658.833 1163.69 664.5C1165.69 670.167 1169.36 674 1174.69 676C1180.36 677.667 1189.19 678.5 1201.19 678.5H1237.69C1258.36 678.5 1274.02 675.667 1284.69 670C1295.69 664 1303.69 654.5 1308.69 641.5C1313.69 628.5 1317.36 609.667 1319.69 585H1331.19C1330.19 595.333 1329.69 609 1329.69 626C1329.69 645 1330.86 666.333 1333.19 690C1310.52 689 1272.36 688.5 1218.69 688.5C1154.69 688.5 1106.36 689 1073.69 690V680C1085.69 679.333 1094.36 678 1099.69 676C1105.36 674 1109.19 670.167 1111.19 664.5C1113.19 658.833 1114.19 649.667 1114.19 637V389C1114.19 376.333 1113.19 367.167 1111.19 361.5C1109.19 355.833 1105.36 352 1099.69 350C1094.36 348 1085.69 346.667 1073.69 346V336C1087.69 337 1109.02 337.5 1137.69 337.5C1164.36 337.5 1185.52 337 1201.19 336V346ZM1527.14 379C1557.8 379 1584.64 385.167 1607.64 397.5C1630.97 409.5 1648.97 427.333 1661.64 451C1674.3 474.333 1680.64 502.333 1680.64 535C1680.64 567 1673.97 595.333 1660.64 620C1647.64 644.333 1629.47 663.333 1606.14 677C1582.8 690.333 1556.3 697 1526.64 697C1495.97 697 1468.97 691 1445.64 679C1422.64 666.667 1404.8 648.833 1392.14 625.5C1379.47 601.833 1373.14 573.667 1373.14 541C1373.14 509 1379.64 480.833 1392.64 456.5C1405.97 431.833 1424.3 412.833 1447.64 399.5C1470.97 385.833 1497.47 379 1527.14 379ZM1525.14 388C1504.8 388 1486.8 394.5 1471.14 407.5C1455.8 420.167 1443.97 438 1435.64 461C1427.3 483.667 1423.14 509.667 1423.14 539C1423.14 568.667 1427.8 594.833 1437.14 617.5C1446.47 640.167 1459.14 657.667 1475.14 670C1491.14 682 1508.97 688 1528.64 688C1548.97 688 1566.8 681.667 1582.14 669C1597.8 656 1609.8 638.167 1618.14 615.5C1626.47 592.5 1630.64 566.333 1630.64 537C1630.64 507.333 1625.97 481.167 1616.64 458.5C1607.3 435.833 1594.64 418.5 1578.64 406.5C1562.64 394.167 1544.8 388 1525.14 388ZM2018.59 669C2012.26 678 2004.93 685 1996.59 690C1988.59 694.667 1978.93 697 1967.59 697C1939.59 697 1922.43 684.333 1916.09 659L1900.59 596.5C1895.93 577.833 1888.93 565.333 1879.59 559C1870.59 552.667 1857.09 549.5 1839.09 549.5H1810.59V637C1810.59 649.667 1811.59 658.833 1813.59 664.5C1815.59 670.167 1819.26 674 1824.59 676C1830.26 678 1839.09 679.333 1851.09 680V690C1835.76 689 1814.59 688.5 1787.59 688.5C1758.93 688.5 1737.59 689 1723.59 690V680C1735.59 679.333 1744.26 678 1749.59 676C1755.26 674 1759.09 670.167 1761.09 664.5C1763.09 658.833 1764.09 649.667 1764.09 637V439C1764.09 426.333 1763.09 417.167 1761.09 411.5C1759.09 405.833 1755.26 402 1749.59 400C1744.26 398 1735.59 396.667 1723.59 396V386C1737.59 387 1757.93 387.5 1784.59 387.5L1835.59 387C1841.26 386.667 1847.76 386.5 1855.09 386.5C1892.43 386.5 1920.93 393.5 1940.59 407.5C1960.59 421.5 1970.59 439.667 1970.59 462C1970.59 481.333 1962.76 499 1947.09 515C1931.76 531 1906.43 541.167 1871.09 545.5C1877.76 546.167 1883.43 546.833 1888.09 547.5C1905.76 550.167 1919.76 555.5 1930.09 563.5C1940.43 571.5 1947.76 584.333 1952.09 602L1963.09 647.5C1965.76 659.167 1968.59 667.5 1971.59 672.5C1974.93 677.167 1979.09 679.5 1984.09 679.5C1992.43 679.5 2001.59 673.833 2011.59 662.5L2018.59 669ZM1842.59 396C1833.59 396 1826.76 397.167 1822.09 399.5C1817.76 401.833 1814.76 406 1813.09 412C1811.43 418 1810.59 427 1810.59 439V539.5H1844.09C1873.43 539.5 1893.43 533.333 1904.09 521C1915.09 508.333 1920.59 490.5 1920.59 467.5C1920.59 443.5 1914.43 425.667 1902.09 414C1890.09 402 1870.26 396 1842.59 396ZM2281.61 631C2281.61 648.333 2282.77 668 2285.11 690C2263.44 689 2226.94 688.5 2175.61 688.5C2113.94 688.5 2067.27 689 2035.61 690V680C2047.61 679.333 2056.27 678 2061.61 676C2067.27 674 2071.11 670.167 2073.11 664.5C2075.11 658.833 2076.11 649.667 2076.11 637V439C2076.11 426.333 2075.11 417.167 2073.11 411.5C2071.11 405.833 2067.27 402 2061.61 400C2056.27 398 2047.61 396.667 2035.61 396V386C2067.27 387 2113.94 387.5 2175.61 387.5C2222.27 387.5 2255.44 387 2275.11 386C2272.77 406 2271.61 424 2271.61 440C2271.61 453 2272.11 463.333 2273.11 471H2261.61C2259.27 443.667 2253.44 424.667 2244.11 414C2235.11 403 2220.27 397.5 2199.61 397.5H2163.11C2151.11 397.5 2142.27 398.5 2136.61 400.5C2131.27 402.167 2127.61 405.833 2125.61 411.5C2123.61 417.167 2122.61 426.333 2122.61 439V532H2164.11C2174.77 532 2182.94 529.333 2188.61 524C2194.27 518.333 2198.11 512.333 2200.11 506C2202.11 499.333 2203.94 491 2205.61 481H2217.11C2216.11 492.333 2215.61 504.667 2215.61 518V537C2215.61 550 2216.61 568.667 2218.61 593H2207.11C2205.11 577 2201.27 564.5 2195.61 555.5C2189.94 546.5 2179.44 542 2164.11 542H2122.61V637C2122.61 649.667 2123.61 658.833 2125.61 664.5C2127.61 670.167 2131.27 674 2136.61 676C2142.27 677.667 2151.11 678.5 2163.11 678.5H2199.61C2216.27 678.5 2229.44 675.833 2239.11 670.5C2248.77 665.167 2256.11 656.667 2261.11 645C2266.11 633 2269.61 616.333 2271.61 595H2283.11C2282.11 604 2281.61 616 2281.61 631ZM2636.97 396C2625.3 396.667 2616.64 398.5 2610.97 401.5C2605.3 404.167 2601.47 408.833 2599.47 415.5C2597.47 421.833 2596.47 431.333 2596.47 444V692.5H2584.97L2384.97 415.5V632C2384.97 645 2385.97 654.667 2387.97 661C2390.3 667.333 2394.64 672 2400.97 675C2407.3 677.667 2417.14 679.333 2430.47 680V690C2418.47 689 2401.47 688.5 2379.47 688.5C2359.47 688.5 2343.97 689 2332.97 690V680C2344.64 679.333 2353.3 677.667 2358.97 675C2364.64 672 2368.47 667.333 2370.47 661C2372.47 654.333 2373.47 644.667 2373.47 632V439C2373.47 426.333 2372.47 417.167 2370.47 411.5C2368.47 405.833 2364.64 402 2358.97 400C2353.64 398 2344.97 396.667 2332.97 396V386C2343.97 387 2359.47 387.5 2379.47 387.5C2397.47 387.5 2412.8 387 2425.47 386L2584.97 608V444C2584.97 431 2583.8 421.333 2581.47 415C2579.47 408.667 2575.3 404.167 2568.97 401.5C2562.64 398.5 2552.8 396.667 2539.47 396V386C2551.47 387 2568.47 387.5 2590.47 387.5C2610.47 387.5 2625.97 387 2636.97 386V396ZM2909.81 396L2733.31 678.5H2843.31C2860.65 678.5 2873.81 672.333 2882.81 660C2891.81 647.333 2897.65 625.667 2900.31 595H2911.81C2910.81 605.333 2910.31 619 2910.31 636C2910.31 652 2911.48 670 2913.81 690C2890.15 689 2850.31 688.5 2794.31 688.5C2740.98 688.5 2702.15 689 2677.81 690V680L2854.31 397.5H2749.31C2731.98 397.5 2718.81 403.833 2709.81 416.5C2700.81 428.833 2694.98 450.333 2692.31 481H2680.81C2681.81 470.333 2682.31 456.667 2682.31 440C2682.31 424 2681.15 406 2678.81 386C2702.48 387 2742.31 387.5 2798.31 387.5C2849.31 387.5 2886.48 387 2909.81 386V396ZM3119.91 379C3150.58 379 3177.41 385.167 3200.41 397.5C3223.74 409.5 3241.74 427.333 3254.41 451C3267.08 474.333 3273.41 502.333 3273.41 535C3273.41 567 3266.74 595.333 3253.41 620C3240.41 644.333 3222.24 663.333 3198.91 677C3175.58 690.333 3149.08 697 3119.41 697C3088.74 697 3061.74 691 3038.41 679C3015.41 666.667 2997.58 648.833 2984.91 625.5C2972.24 601.833 2965.91 573.667 2965.91 541C2965.91 509 2972.41 480.833 2985.41 456.5C2998.74 431.833 3017.08 412.833 3040.41 399.5C3063.74 385.833 3090.24 379 3119.91 379ZM3117.91 388C3097.58 388 3079.58 394.5 3063.91 407.5C3048.58 420.167 3036.74 438 3028.41 461C3020.08 483.667 3015.91 509.667 3015.91 539C3015.91 568.667 3020.58 594.833 3029.91 617.5C3039.24 640.167 3051.91 657.667 3067.91 670C3083.91 682 3101.74 688 3121.41 688C3141.74 688 3159.58 681.667 3174.91 669C3190.58 656 3202.58 638.167 3210.91 615.5C3219.24 592.5 3223.41 566.333 3223.41 537C3223.41 507.333 3218.74 481.167 3209.41 458.5C3200.08 435.833 3187.41 418.5 3171.41 406.5C3155.41 394.167 3137.58 388 3117.91 388ZM3612.27 329C3631.94 329 3648.11 331.833 3660.77 337.5C3673.44 342.833 3687.27 350.833 3702.27 361.5C3706.61 364.833 3709.94 366.5 3712.27 366.5C3718.61 366.5 3722.77 356.333 3724.77 336H3736.27C3734.94 357.667 3734.27 396 3734.27 451H3722.77C3719.77 433.333 3716.61 418.833 3713.27 407.5C3709.94 395.833 3704.77 385.667 3697.77 377C3688.11 365 3675.44 355.5 3659.77 348.5C3644.44 341.5 3628.27 338 3611.27 338C3589.27 338 3569.94 345.167 3553.27 359.5C3536.61 373.833 3523.77 394.333 3514.77 421C3505.77 447.333 3501.27 478.167 3501.27 513.5C3501.27 573.5 3510.77 617.5 3529.77 645.5C3549.11 673.167 3579.27 687 3620.27 687C3640.27 687 3657.61 681.833 3672.27 671.5C3678.27 667.5 3682.11 663.667 3683.77 660C3685.77 656 3686.77 650.667 3686.77 644V596C3686.77 582 3685.44 571.833 3682.77 565.5C3680.11 559.167 3675.44 554.833 3668.77 552.5C3662.11 550.167 3651.27 548.667 3636.27 548V538C3653.61 539 3677.11 539.5 3706.77 539.5C3729.44 539.5 3746.77 539 3758.77 538V548C3751.11 548.667 3745.44 550 3741.77 552C3738.44 554 3736.11 557.833 3734.77 563.5C3733.77 569.167 3733.27 578.333 3733.27 591V690H3723.27C3722.94 683.333 3721.61 677 3719.27 671C3716.94 664.667 3713.77 661.5 3709.77 661.5C3707.77 661.5 3705.77 662 3703.77 663C3701.77 664 3698.27 666.333 3693.27 670C3681.61 679 3669.44 685.667 3656.77 690C3644.44 694.667 3630.61 697 3615.27 697C3580.94 697 3551.44 690 3526.77 676C3502.44 661.667 3483.77 641.167 3470.77 614.5C3457.77 587.833 3451.27 556 3451.27 519C3451.27 481 3458.11 447.667 3471.77 419C3485.77 390 3504.94 367.833 3529.27 352.5C3553.61 336.833 3581.27 329 3612.27 329ZM4050.84 648C4059.84 668.667 4071.34 679.333 4085.34 680V690C4072 689 4054.17 688.5 4031.84 688.5C4003.17 688.5 3981.84 689 3967.84 690V680C3980.17 679.333 3989.17 677.667 3994.84 675C4000.84 672.333 4003.84 667.833 4003.84 661.5C4003.84 656.167 4001.5 648.333 3996.84 638L3971.34 581H3849.84L3832.84 618.5C3827.17 631.5 3824.34 642.167 3824.34 650.5C3824.34 659.167 3827.34 666 3833.34 671C3839.67 675.667 3849.67 678.667 3863.34 680V690C3853.34 689 3838.17 688.5 3817.84 688.5C3797.5 688.5 3783 689 3774.34 690V680C3783.34 677.667 3791 672.667 3797.34 665C3803.67 657 3809.67 646.5 3815.34 633.5L3925.84 383.5H3933.84L4050.84 648ZM3967.34 571L3910.84 444L3853.84 571H3967.34ZM4211.94 379C4226.61 379 4238.11 380.667 4246.44 384C4255.11 387 4263.94 391.5 4272.94 397.5C4280.27 402.167 4285.94 404.5 4289.94 404.5C4292.94 404.5 4295.27 402.833 4296.94 399.5C4298.61 395.833 4299.94 390.167 4300.94 382.5H4312.44C4310.77 399.833 4309.94 430.5 4309.94 474.5H4298.44C4296.44 450.5 4288.61 430.167 4274.94 413.5C4261.61 396.833 4242.11 388.5 4216.44 388.5C4198.77 388.5 4184.11 393.167 4172.44 402.5C4161.11 411.833 4155.44 423.667 4155.44 438C4155.44 448.333 4157.94 457.333 4162.94 465C4168.27 472.667 4174.94 479.333 4182.94 485C4191.27 490.333 4202.94 497 4217.94 505L4234.44 514C4255.11 525 4271.61 534.833 4283.94 543.5C4296.61 552.167 4306.77 562.167 4314.44 573.5C4322.11 584.5 4325.94 597.333 4325.94 612C4325.94 639 4316.11 660 4296.44 675C4277.11 689.667 4252.77 697 4223.44 697C4207.44 697 4194.27 695.333 4183.94 692C4173.94 688.667 4164.27 684.167 4154.94 678.5C4147.61 673.833 4141.94 671.5 4137.94 671.5C4134.94 671.5 4132.61 673.333 4130.94 677C4129.27 680.333 4127.94 685.833 4126.94 693.5H4115.44C4116.77 677.167 4117.44 640.5 4117.44 583.5H4128.94C4131.27 614.5 4139.61 639.5 4153.94 658.5C4168.27 677.5 4190.27 687 4219.94 687C4236.61 687 4250.94 682.333 4262.94 673C4275.27 663.333 4281.44 649.167 4281.44 630.5C4281.44 619.5 4278.27 609.833 4271.94 601.5C4265.61 592.833 4257.11 585.167 4246.44 578.5C4235.77 571.833 4220.94 563.5 4201.94 553.5C4174.61 539.5 4153.77 525.5 4139.44 511.5C4125.11 497.5 4117.94 479.333 4117.94 457C4117.94 432.333 4126.94 413.167 4144.94 399.5C4163.27 385.833 4185.61 379 4211.94 379ZM4650.02 386C4647.69 408 4646.52 427.667 4646.52 445C4646.52 462.333 4647.02 476 4648.02 486H4636.52C4634.52 462.667 4631.35 444.833 4627.02 432.5C4622.69 420.167 4615.69 411.333 4606.02 406C4596.35 400.333 4582.52 397.5 4564.52 397.5H4532.52V632C4532.52 646 4533.85 656.167 4536.52 662.5C4539.19 668.833 4543.85 673.167 4550.52 675.5C4557.19 677.833 4568.02 679.333 4583.02 680V690C4565.69 689 4541.19 688.5 4509.52 688.5C4476.19 688.5 4451.52 689 4435.52 690V680C4450.52 679.333 4461.35 677.833 4468.02 675.5C4474.69 673.167 4479.35 668.833 4482.02 662.5C4484.69 656.167 4486.02 646 4486.02 632V397.5H4454.02C4436.02 397.5 4422.19 400.333 4412.52 406C4402.85 411.333 4395.85 420.167 4391.52 432.5C4387.19 444.833 4384.02 462.667 4382.02 486H4370.52C4371.52 475.333 4372.02 461.667 4372.02 445C4372.02 427.667 4370.85 408 4368.52 386C4396.19 387 4443.19 387.5 4509.52 387.5C4575.52 387.5 4622.35 387 4650.02 386ZM4909.23 648C4918.23 668.667 4929.73 679.333 4943.73 680V690C4930.4 689 4912.57 688.5 4890.23 688.5C4861.57 688.5 4840.23 689 4826.23 690V680C4838.57 679.333 4847.57 677.667 4853.23 675C4859.23 672.333 4862.23 667.833 4862.23 661.5C4862.23 656.167 4859.9 648.333 4855.23 638L4829.73 581H4708.23L4691.23 618.5C4685.57 631.5 4682.73 642.167 4682.73 650.5C4682.73 659.167 4685.73 666 4691.73 671C4698.07 675.667 4708.07 678.667 4721.73 680V690C4711.73 689 4696.57 688.5 4676.23 688.5C4655.9 688.5 4641.4 689 4632.73 690V680C4641.73 677.667 4649.4 672.667 4655.73 665C4662.07 657 4668.07 646.5 4673.73 633.5L4784.23 383.5H4792.23L4909.23 648ZM4825.73 571L4769.23 444L4712.23 571H4825.73ZM5090.84 396C5078.84 396.667 5070.01 398 5064.34 400C5059.01 402 5055.34 405.833 5053.34 411.5C5051.34 417.167 5050.34 426.333 5050.34 439V637C5050.34 649.667 5051.34 658.833 5053.34 664.5C5055.34 670.167 5059.01 674 5064.34 676C5070.01 677.667 5078.84 678.5 5090.84 678.5H5122.34C5145.34 678.5 5163.17 671.667 5175.84 658C5188.84 644.333 5196.67 621.667 5199.34 590H5210.84C5209.84 600.333 5209.34 614 5209.34 631C5209.34 648.333 5210.51 668 5212.84 690C5191.17 689 5154.67 688.5 5103.34 688.5C5041.67 688.5 4995.01 689 4963.34 690V680C4975.34 679.333 4984.01 678 4989.34 676C4995.01 674 4998.84 670.167 5000.84 664.5C5002.84 658.833 5003.84 649.667 5003.84 637V439C5003.84 426.333 5002.84 417.167 5000.84 411.5C4998.84 405.833 4995.01 402 4989.34 400C4984.01 398 4975.34 396.667 4963.34 396V386C4977.34 387 4998.67 387.5 5027.34 387.5C5054.01 387.5 5075.17 387 5090.84 386V396ZM5386.46 386C5438.46 386 5477.46 398.667 5503.46 424C5529.79 449 5542.96 485.667 5542.96 534C5542.96 565.333 5536.63 592.833 5523.96 616.5C5511.29 639.833 5492.79 658 5468.46 671C5444.46 683.667 5415.63 690 5381.96 690L5352.96 689.5C5334.29 688.833 5320.63 688.5 5311.96 688.5C5284.63 688.5 5263.96 689 5249.96 690V680C5261.96 679.333 5270.63 678 5275.96 676C5281.63 674 5285.46 670.167 5287.46 664.5C5289.46 658.833 5290.46 649.667 5290.46 637V439C5290.46 426.333 5289.46 417.167 5287.46 411.5C5285.46 405.833 5281.63 402 5275.96 400C5270.63 398 5261.96 396.667 5249.96 396V386C5261.63 387 5277.79 387.5 5298.46 387.5L5340.96 387C5363.63 386.333 5378.79 386 5386.46 386ZM5373.96 395C5363.63 395 5355.79 396.167 5350.46 398.5C5345.46 400.833 5341.96 405 5339.96 411C5337.96 417 5336.96 426 5336.96 438V638C5336.96 650 5337.96 659 5339.96 665C5341.96 671 5345.46 675.167 5350.46 677.5C5355.79 679.833 5363.79 681 5374.46 681C5404.79 681 5428.63 675.667 5445.96 665C5463.29 654 5475.46 638 5482.46 617C5489.46 596 5492.96 569 5492.96 536C5492.96 487.333 5483.96 451.667 5465.96 429C5447.96 406.333 5417.29 395 5373.96 395ZM5714.38 396C5702.38 396.667 5693.54 398 5687.88 400C5682.54 402 5678.88 405.833 5676.88 411.5C5674.88 417.167 5673.88 426.333 5673.88 439V637C5673.88 649.667 5674.88 658.833 5676.88 664.5C5678.88 670.167 5682.54 674 5687.88 676C5693.54 678 5702.38 679.333 5714.38 680V690C5699.04 689 5677.88 688.5 5650.88 688.5C5622.21 688.5 5600.88 689 5586.88 690V680C5598.88 679.333 5607.54 678 5612.88 676C5618.54 674 5622.38 670.167 5624.38 664.5C5626.38 658.833 5627.38 649.667 5627.38 637V439C5627.38 426.333 5626.38 417.167 5624.38 411.5C5622.38 405.833 5618.54 402 5612.88 400C5607.54 398 5598.88 396.667 5586.88 396V386C5600.88 387 5622.21 387.5 5650.88 387.5C5677.54 387.5 5698.71 387 5714.38 386V396Z" fill="black"/>
<rect width="908" height="1089" rx="86" fill="#1B1B1B"/>
<path fill-rule="evenodd" clip-rule="evenodd" d="M747.836 662.992C706.905 708.468 655.395 740.4 599.067 755.22C542.738 770.039 483.81 767.162 428.868 746.91C373.927 726.658 325.138 689.829 287.954 640.54C250.77 591.25 226.658 531.443 218.311 467.803C209.965 404.162 217.713 339.197 240.691 280.168C263.669 221.14 300.97 170.374 348.425 133.546C395.88 96.717 451.62 75.2771 509.412 71.6222C515.953 71.2086 522.191 71.0001 528.185 71H528.197C575.169 71.0011 607.19 83.7956 652.335 110.937L592.409 177.336C508.225 124.841 414.871 115.563 348.243 162.212C247.524 232.729 246.022 404.346 344.888 545.528C443.754 686.711 605.55 743.995 706.269 673.477C732.704 654.969 752.304 629.497 765.049 599.439H620.779L663.085 538.412H848.958V837.306C848.958 837.306 849.053 843.04 848.958 848.32C848.933 849.728 848.894 851.104 848.836 852.33C845.403 925.284 729.32 981.205 729.32 981.205C729.32 981.205 786.703 931.992 789.076 881.156C789.354 875.195 789.312 866.086 789.312 866.086V599.439H783.914C775.502 623.513 766.491 639.548 747.836 662.992ZM163.024 921.114C126.491 978.118 59 1019 59 1019C59 1019 98.8854 979.088 117.914 920.19C118.243 919.172 118.563 918.194 118.876 917.235C120.376 912.647 121.726 908.518 123.154 902.841C126.238 890.579 126.274 825.026 126.275 823.464V238.824C126.275 238.824 126.275 233.731 120.38 231.196C115.473 229.086 103.122 238.173 99.1152 241.282C76.9886 259.345 59.3468 270.031 59.3468 270.031C59.3468 270.031 98.8285 230.523 117.97 172.116L116.745 175.747C116.745 175.747 133.946 131.897 147.428 120.238C160.259 109.142 171.356 109.142 171.356 109.142C171.356 109.142 183.276 109.142 189.218 120.238C197.017 134.801 197.017 153.525 197.017 153.525V700.762C197.017 700.762 197.017 774.545 189.735 817.888C188.851 823.15 187.943 828.191 187.015 833.02C192.021 825.956 197.658 819.734 203.953 815.114C241.751 787.375 289.953 787.375 289.953 787.375H706.803C716.086 787.378 725.277 789.527 733.854 793.699C742.437 797.875 750.235 803.995 756.804 811.71C763.373 819.425 768.584 828.585 772.14 838.665C775.613 848.514 777.439 859.054 777.522 869.71C777.496 871.349 777.458 872.946 777.403 874.376C773.969 962.664 660.313 1009.29 660.313 1009.29C660.313 1009.29 715.269 970.782 717.642 909.261C717.753 906.369 717.814 902.866 717.846 899.705C717.064 878.296 702.473 861.229 684.588 861.229H261.502L261.522 861.231C261.522 861.231 228.578 861.231 200.49 882.036C184.627 893.785 170.472 911.17 163.024 921.114Z" fill="white"/>
</svg>
