<svg width="3694" height="1089" viewBox="0 0 3694 1089" fill="none" xmlns="http://www.w3.org/2000/svg">
<path d="M1333.48 391C1353.15 391 1369.32 393.833 1381.98 399.5C1394.65 404.833 1408.48 412.833 1423.48 423.5C1427.82 426.833 1431.15 428.5 1433.48 428.5C1439.82 428.5 1443.98 418.333 1445.98 398H1457.48C1456.15 419.667 1455.48 458 1455.48 513H1443.98C1440.98 495.333 1437.82 480.833 1434.48 469.5C1431.15 457.833 1425.98 447.667 1418.98 439C1409.32 427 1396.65 417.5 1380.98 410.5C1365.65 403.5 1349.48 400 1332.48 400C1310.48 400 1291.15 407.167 1274.48 421.5C1257.82 435.833 1244.98 456.333 1235.98 483C1226.98 509.333 1222.48 540.167 1222.48 575.5C1222.48 635.5 1231.98 679.5 1250.98 707.5C1270.32 735.167 1300.48 749 1341.48 749C1361.48 749 1378.82 743.833 1393.48 733.5C1399.48 729.5 1403.32 725.667 1404.98 722C1406.98 718 1407.98 712.667 1407.98 706V658C1407.98 644 1406.65 633.833 1403.98 627.5C1401.32 621.167 1396.65 616.833 1389.98 614.5C1383.32 612.167 1372.48 610.667 1357.48 610V600C1374.82 601 1398.32 601.5 1427.98 601.5C1450.65 601.5 1467.98 601 1479.98 600V610C1472.32 610.667 1466.65 612 1462.98 614C1459.65 616 1457.32 619.833 1455.98 625.5C1454.98 631.167 1454.48 640.333 1454.48 653V752H1444.48C1444.15 745.333 1442.82 739 1440.48 733C1438.15 726.667 1434.98 723.5 1430.98 723.5C1428.98 723.5 1426.98 724 1424.98 725C1422.98 726 1419.48 728.333 1414.48 732C1402.82 741 1390.65 747.667 1377.98 752C1365.65 756.667 1351.82 759 1336.48 759C1302.15 759 1272.65 752 1247.98 738C1223.65 723.667 1204.98 703.167 1191.98 676.5C1178.98 649.833 1172.48 618 1172.48 581C1172.48 543 1179.32 509.667 1192.98 481C1206.98 452 1226.15 429.833 1250.48 414.5C1274.82 398.833 1302.48 391 1333.48 391ZM1772.04 710C1781.04 730.667 1792.54 741.333 1806.54 742V752C1793.21 751 1775.38 750.5 1753.04 750.5C1724.38 750.5 1703.04 751 1689.04 752V742C1701.38 741.333 1710.38 739.667 1716.04 737C1722.04 734.333 1725.04 729.833 1725.04 723.5C1725.04 718.167 1722.71 710.333 1718.04 700L1692.54 643H1571.04L1554.04 680.5C1548.38 693.5 1545.54 704.167 1545.54 712.5C1545.54 721.167 1548.54 728 1554.54 733C1560.88 737.667 1570.88 740.667 1584.54 742V752C1574.54 751 1559.38 750.5 1539.04 750.5C1518.71 750.5 1504.21 751 1495.54 752V742C1504.54 739.667 1512.21 734.667 1518.54 727C1524.88 719 1530.88 708.5 1536.54 695.5L1647.04 445.5H1655.04L1772.04 710ZM1688.54 633L1632.04 506L1575.04 633H1688.54ZM1933.15 441C1947.82 441 1959.32 442.667 1967.65 446C1976.32 449 1985.15 453.5 1994.15 459.5C2001.48 464.167 2007.15 466.5 2011.15 466.5C2014.15 466.5 2016.48 464.833 2018.15 461.5C2019.82 457.833 2021.15 452.167 2022.15 444.5H2033.65C2031.98 461.833 2031.15 492.5 2031.15 536.5H2019.65C2017.65 512.5 2009.82 492.167 1996.15 475.5C1982.82 458.833 1963.32 450.5 1937.65 450.5C1919.98 450.5 1905.32 455.167 1893.65 464.5C1882.32 473.833 1876.65 485.667 1876.65 500C1876.65 510.333 1879.15 519.333 1884.15 527C1889.48 534.667 1896.15 541.333 1904.15 547C1912.48 552.333 1924.15 559 1939.15 567L1955.65 576C1976.32 587 1992.82 596.833 2005.15 605.5C2017.82 614.167 2027.98 624.167 2035.65 635.5C2043.32 646.5 2047.15 659.333 2047.15 674C2047.15 701 2037.32 722 2017.65 737C1998.32 751.667 1973.98 759 1944.65 759C1928.65 759 1915.48 757.333 1905.15 754C1895.15 750.667 1885.48 746.167 1876.15 740.5C1868.82 735.833 1863.15 733.5 1859.15 733.5C1856.15 733.5 1853.82 735.333 1852.15 739C1850.48 742.333 1849.15 747.833 1848.15 755.5H1836.65C1837.98 739.167 1838.65 702.5 1838.65 645.5H1850.15C1852.48 676.5 1860.82 701.5 1875.15 720.5C1889.48 739.5 1911.48 749 1941.15 749C1957.82 749 1972.15 744.333 1984.15 735C1996.48 725.333 2002.65 711.167 2002.65 692.5C2002.65 681.5 1999.48 671.833 1993.15 663.5C1986.82 654.833 1978.32 647.167 1967.65 640.5C1956.98 633.833 1942.15 625.5 1923.15 615.5C1895.82 601.5 1874.98 587.5 1860.65 573.5C1846.32 559.5 1839.15 541.333 1839.15 519C1839.15 494.333 1848.15 475.167 1866.15 461.5C1884.48 447.833 1906.82 441 1933.15 441ZM2371.23 448C2368.9 470 2367.73 489.667 2367.73 507C2367.73 524.333 2368.23 538 2369.23 548H2357.73C2355.73 524.667 2352.56 506.833 2348.23 494.5C2343.9 482.167 2336.9 473.333 2327.23 468C2317.56 462.333 2303.73 459.5 2285.73 459.5H2253.73V694C2253.73 708 2255.06 718.167 2257.73 724.5C2260.4 730.833 2265.06 735.167 2271.73 737.5C2278.4 739.833 2289.23 741.333 2304.23 742V752C2286.9 751 2262.4 750.5 2230.73 750.5C2197.4 750.5 2172.73 751 2156.73 752V742C2171.73 741.333 2182.56 739.833 2189.23 737.5C2195.9 735.167 2200.56 730.833 2203.23 724.5C2205.9 718.167 2207.23 708 2207.23 694V459.5H2175.23C2157.23 459.5 2143.4 462.333 2133.73 468C2124.06 473.333 2117.06 482.167 2112.73 494.5C2108.4 506.833 2105.23 524.667 2103.23 548H2091.73C2092.73 537.333 2093.23 523.667 2093.23 507C2093.23 489.667 2092.06 470 2089.73 448C2117.4 449 2164.4 449.5 2230.73 449.5C2296.73 449.5 2343.56 449 2371.23 448ZM2630.44 710C2639.44 730.667 2650.94 741.333 2664.94 742V752C2651.61 751 2633.78 750.5 2611.44 750.5C2582.78 750.5 2561.44 751 2547.44 752V742C2559.78 741.333 2568.78 739.667 2574.44 737C2580.44 734.333 2583.44 729.833 2583.44 723.5C2583.44 718.167 2581.11 710.333 2576.44 700L2550.94 643H2429.44L2412.44 680.5C2406.78 693.5 2403.94 704.167 2403.94 712.5C2403.94 721.167 2406.94 728 2412.94 733C2419.28 737.667 2429.28 740.667 2442.94 742V752C2432.94 751 2417.78 750.5 2397.44 750.5C2377.11 750.5 2362.61 751 2353.94 752V742C2362.94 739.667 2370.61 734.667 2376.94 727C2383.28 719 2389.28 708.5 2394.94 695.5L2505.44 445.5H2513.44L2630.44 710ZM2546.94 633L2490.44 506L2433.44 633H2546.94ZM2812.05 458C2800.05 458.667 2791.22 460 2785.55 462C2780.22 464 2776.55 467.833 2774.55 473.5C2772.55 479.167 2771.55 488.333 2771.55 501V699C2771.55 711.667 2772.55 720.833 2774.55 726.5C2776.55 732.167 2780.22 736 2785.55 738C2791.22 739.667 2800.05 740.5 2812.05 740.5H2843.55C2866.55 740.5 2884.38 733.667 2897.05 720C2910.05 706.333 2917.88 683.667 2920.55 652H2932.05C2931.05 662.333 2930.55 676 2930.55 693C2930.55 710.333 2931.72 730 2934.05 752C2912.38 751 2875.88 750.5 2824.55 750.5C2762.88 750.5 2716.22 751 2684.55 752V742C2696.55 741.333 2705.22 740 2710.55 738C2716.22 736 2720.05 732.167 2722.05 726.5C2724.05 720.833 2725.05 711.667 2725.05 699V501C2725.05 488.333 2724.05 479.167 2722.05 473.5C2720.05 467.833 2716.22 464 2710.55 462C2705.22 460 2696.55 458.667 2684.55 458V448C2698.55 449 2719.88 449.5 2748.55 449.5C2775.22 449.5 2796.38 449 2812.05 448V458ZM3107.67 448C3159.67 448 3198.67 460.667 3224.67 486C3251 511 3264.17 547.667 3264.17 596C3264.17 627.333 3257.84 654.833 3245.17 678.5C3232.5 701.833 3214 720 3189.67 733C3165.67 745.667 3136.84 752 3103.17 752L3074.17 751.5C3055.5 750.833 3041.84 750.5 3033.17 750.5C3005.84 750.5 2985.17 751 2971.17 752V742C2983.17 741.333 2991.84 740 2997.17 738C3002.84 736 3006.67 732.167 3008.67 726.5C3010.67 720.833 3011.67 711.667 3011.67 699V501C3011.67 488.333 3010.67 479.167 3008.67 473.5C3006.67 467.833 3002.84 464 2997.17 462C2991.84 460 2983.17 458.667 2971.17 458V448C2982.84 449 2999 449.5 3019.67 449.5L3062.17 449C3084.84 448.333 3100 448 3107.67 448ZM3095.17 457C3084.84 457 3077 458.167 3071.67 460.5C3066.67 462.833 3063.17 467 3061.17 473C3059.17 479 3058.17 488 3058.17 500V700C3058.17 712 3059.17 721 3061.17 727C3063.17 733 3066.67 737.167 3071.67 739.5C3077 741.833 3085 743 3095.67 743C3126 743 3149.84 737.667 3167.17 727C3184.5 716 3196.67 700 3203.67 679C3210.67 658 3214.17 631 3214.17 598C3214.17 549.333 3205.17 513.667 3187.17 491C3169.17 468.333 3138.5 457 3095.17 457ZM3435.58 458C3423.58 458.667 3414.75 460 3409.08 462C3403.75 464 3400.08 467.833 3398.08 473.5C3396.08 479.167 3395.08 488.333 3395.08 501V699C3395.08 711.667 3396.08 720.833 3398.08 726.5C3400.08 732.167 3403.75 736 3409.08 738C3414.75 740 3423.58 741.333 3435.58 742V752C3420.25 751 3399.08 750.5 3372.08 750.5C3343.42 750.5 3322.08 751 3308.08 752V742C3320.08 741.333 3328.75 740 3334.08 738C3339.75 736 3343.58 732.167 3345.58 726.5C3347.58 720.833 3348.58 711.667 3348.58 699V501C3348.58 488.333 3347.58 479.167 3345.58 473.5C3343.58 467.833 3339.75 464 3334.08 462C3328.75 460 3320.08 458.667 3308.08 458V448C3322.08 449 3343.42 449.5 3372.08 449.5C3398.75 449.5 3419.92 449 3435.58 448V458Z" fill="black"/>
<rect width="908" height="1089" rx="86" fill="#1B1B1B"/>
<path fill-rule="evenodd" clip-rule="evenodd" d="M747.836 662.992C706.905 708.468 655.395 740.4 599.067 755.22C542.738 770.039 483.81 767.162 428.868 746.91C373.927 726.658 325.138 689.829 287.954 640.54C250.77 591.25 226.658 531.443 218.311 467.803C209.965 404.162 217.713 339.197 240.691 280.168C263.669 221.14 300.97 170.374 348.425 133.546C395.88 96.717 451.62 75.2771 509.412 71.6222C515.953 71.2086 522.191 71.0001 528.185 71H528.197C575.169 71.0011 607.19 83.7956 652.335 110.937L592.409 177.336C508.225 124.841 414.871 115.563 348.243 162.212C247.524 232.729 246.022 404.346 344.888 545.528C443.754 686.711 605.55 743.995 706.269 673.477C732.704 654.969 752.304 629.497 765.049 599.439H620.779L663.085 538.412H848.958V837.306C848.958 837.306 849.053 843.04 848.958 848.32C848.933 849.728 848.894 851.104 848.836 852.33C845.403 925.284 729.32 981.205 729.32 981.205C729.32 981.205 786.703 931.992 789.076 881.156C789.354 875.195 789.312 866.086 789.312 866.086V599.439H783.914C775.502 623.513 766.491 639.548 747.836 662.992ZM163.024 921.114C126.491 978.118 59 1019 59 1019C59 1019 98.8854 979.088 117.914 920.19C118.243 919.172 118.563 918.194 118.876 917.235C120.376 912.647 121.726 908.518 123.154 902.841C126.238 890.579 126.274 825.026 126.275 823.464V238.824C126.275 238.824 126.275 233.731 120.38 231.196C115.473 229.086 103.122 238.173 99.1152 241.282C76.9886 259.345 59.3468 270.031 59.3468 270.031C59.3468 270.031 98.8285 230.523 117.97 172.116L116.745 175.747C116.745 175.747 133.946 131.897 147.428 120.238C160.259 109.142 171.356 109.142 171.356 109.142C171.356 109.142 183.276 109.142 189.218 120.238C197.017 134.801 197.017 153.525 197.017 153.525V700.762C197.017 700.762 197.017 774.545 189.735 817.888C188.851 823.15 187.943 828.191 187.015 833.02C192.021 825.956 197.658 819.734 203.953 815.114C241.751 787.375 289.953 787.375 289.953 787.375H706.803C716.086 787.378 725.277 789.527 733.854 793.699C742.437 797.875 750.235 803.995 756.804 811.71C763.373 819.425 768.584 828.585 772.14 838.665C775.613 848.514 777.439 859.054 777.522 869.71C777.496 871.349 777.458 872.946 777.403 874.376C773.969 962.664 660.313 1009.29 660.313 1009.29C660.313 1009.29 715.269 970.782 717.642 909.261C717.753 906.369 717.814 902.866 717.846 899.705C717.064 878.296 702.473 861.229 684.588 861.229H261.502L261.522 861.231C261.522 861.231 228.578 861.231 200.49 882.036C184.627 893.785 170.472 911.17 163.024 921.114Z" fill="#FFD900"/>
</svg>
