<svg width="3694" height="1090" viewBox="0 0 3694 1090" fill="none" xmlns="http://www.w3.org/2000/svg">
<path d="M1333.48 392C1353.15 392 1369.32 394.833 1381.98 400.5C1394.65 405.833 1408.48 413.833 1423.48 424.5C1427.82 427.833 1431.15 429.5 1433.48 429.5C1439.82 429.5 1443.98 419.333 1445.98 399H1457.48C1456.15 420.667 1455.48 459 1455.48 514H1443.98C1440.98 496.333 1437.82 481.833 1434.48 470.5C1431.15 458.833 1425.98 448.667 1418.98 440C1409.32 428 1396.65 418.5 1380.98 411.5C1365.65 404.5 1349.48 401 1332.48 401C1310.48 401 1291.15 408.167 1274.48 422.5C1257.82 436.833 1244.98 457.333 1235.98 484C1226.98 510.333 1222.48 541.167 1222.48 576.5C1222.48 636.5 1231.98 680.5 1250.98 708.5C1270.32 736.167 1300.48 750 1341.48 750C1361.48 750 1378.82 744.833 1393.48 734.5C1399.48 730.5 1403.32 726.667 1404.98 723C1406.98 719 1407.98 713.667 1407.98 707V659C1407.98 645 1406.65 634.833 1403.98 628.5C1401.32 622.167 1396.65 617.833 1389.98 615.5C1383.32 613.167 1372.48 611.667 1357.48 611V601C1374.82 602 1398.32 602.5 1427.98 602.5C1450.65 602.5 1467.98 602 1479.98 601V611C1472.32 611.667 1466.65 613 1462.98 615C1459.65 617 1457.32 620.833 1455.98 626.5C1454.98 632.167 1454.48 641.333 1454.48 654V753H1444.48C1444.15 746.333 1442.82 740 1440.48 734C1438.15 727.667 1434.98 724.5 1430.98 724.5C1428.98 724.5 1426.98 725 1424.98 726C1422.98 727 1419.48 729.333 1414.48 733C1402.82 742 1390.65 748.667 1377.98 753C1365.65 757.667 1351.82 760 1336.48 760C1302.15 760 1272.65 753 1247.98 739C1223.65 724.667 1204.98 704.167 1191.98 677.5C1178.98 650.833 1172.48 619 1172.48 582C1172.48 544 1179.32 510.667 1192.98 482C1206.98 453 1226.15 430.833 1250.48 415.5C1274.82 399.833 1302.48 392 1333.48 392ZM1772.04 711C1781.04 731.667 1792.54 742.333 1806.54 743V753C1793.21 752 1775.38 751.5 1753.04 751.5C1724.38 751.5 1703.04 752 1689.04 753V743C1701.38 742.333 1710.38 740.667 1716.04 738C1722.04 735.333 1725.04 730.833 1725.04 724.5C1725.04 719.167 1722.71 711.333 1718.04 701L1692.54 644H1571.04L1554.04 681.5C1548.38 694.5 1545.54 705.167 1545.54 713.5C1545.54 722.167 1548.54 729 1554.54 734C1560.88 738.667 1570.88 741.667 1584.54 743V753C1574.54 752 1559.38 751.5 1539.04 751.5C1518.71 751.5 1504.21 752 1495.54 753V743C1504.54 740.667 1512.21 735.667 1518.54 728C1524.88 720 1530.88 709.5 1536.54 696.5L1647.04 446.5H1655.04L1772.04 711ZM1688.54 634L1632.04 507L1575.04 634H1688.54ZM1933.15 442C1947.82 442 1959.32 443.667 1967.65 447C1976.32 450 1985.15 454.5 1994.15 460.5C2001.48 465.167 2007.15 467.5 2011.15 467.5C2014.15 467.5 2016.48 465.833 2018.15 462.5C2019.82 458.833 2021.15 453.167 2022.15 445.5H2033.65C2031.98 462.833 2031.15 493.5 2031.15 537.5H2019.65C2017.65 513.5 2009.82 493.167 1996.15 476.5C1982.82 459.833 1963.32 451.5 1937.65 451.5C1919.98 451.5 1905.32 456.167 1893.65 465.5C1882.32 474.833 1876.65 486.667 1876.65 501C1876.65 511.333 1879.15 520.333 1884.15 528C1889.48 535.667 1896.15 542.333 1904.15 548C1912.48 553.333 1924.15 560 1939.15 568L1955.65 577C1976.32 588 1992.82 597.833 2005.15 606.5C2017.82 615.167 2027.98 625.167 2035.65 636.5C2043.32 647.5 2047.15 660.333 2047.15 675C2047.15 702 2037.32 723 2017.65 738C1998.32 752.667 1973.98 760 1944.65 760C1928.65 760 1915.48 758.333 1905.15 755C1895.15 751.667 1885.48 747.167 1876.15 741.5C1868.82 736.833 1863.15 734.5 1859.15 734.5C1856.15 734.5 1853.82 736.333 1852.15 740C1850.48 743.333 1849.15 748.833 1848.15 756.5H1836.65C1837.98 740.167 1838.65 703.5 1838.65 646.5H1850.15C1852.48 677.5 1860.82 702.5 1875.15 721.5C1889.48 740.5 1911.48 750 1941.15 750C1957.82 750 1972.15 745.333 1984.15 736C1996.48 726.333 2002.65 712.167 2002.65 693.5C2002.65 682.5 1999.48 672.833 1993.15 664.5C1986.82 655.833 1978.32 648.167 1967.65 641.5C1956.98 634.833 1942.15 626.5 1923.15 616.5C1895.82 602.5 1874.98 588.5 1860.65 574.5C1846.32 560.5 1839.15 542.333 1839.15 520C1839.15 495.333 1848.15 476.167 1866.15 462.5C1884.48 448.833 1906.82 442 1933.15 442ZM2371.23 449C2368.9 471 2367.73 490.667 2367.73 508C2367.73 525.333 2368.23 539 2369.23 549H2357.73C2355.73 525.667 2352.56 507.833 2348.23 495.5C2343.9 483.167 2336.9 474.333 2327.23 469C2317.56 463.333 2303.73 460.5 2285.73 460.5H2253.73V695C2253.73 709 2255.06 719.167 2257.73 725.5C2260.4 731.833 2265.06 736.167 2271.73 738.5C2278.4 740.833 2289.23 742.333 2304.23 743V753C2286.9 752 2262.4 751.5 2230.73 751.5C2197.4 751.5 2172.73 752 2156.73 753V743C2171.73 742.333 2182.56 740.833 2189.23 738.5C2195.9 736.167 2200.56 731.833 2203.23 725.5C2205.9 719.167 2207.23 709 2207.23 695V460.5H2175.23C2157.23 460.5 2143.4 463.333 2133.73 469C2124.06 474.333 2117.06 483.167 2112.73 495.5C2108.4 507.833 2105.23 525.667 2103.23 549H2091.73C2092.73 538.333 2093.23 524.667 2093.23 508C2093.23 490.667 2092.06 471 2089.73 449C2117.4 450 2164.4 450.5 2230.73 450.5C2296.73 450.5 2343.56 450 2371.23 449ZM2630.44 711C2639.44 731.667 2650.94 742.333 2664.94 743V753C2651.61 752 2633.78 751.5 2611.44 751.5C2582.78 751.5 2561.44 752 2547.44 753V743C2559.78 742.333 2568.78 740.667 2574.44 738C2580.44 735.333 2583.44 730.833 2583.44 724.5C2583.44 719.167 2581.11 711.333 2576.44 701L2550.94 644H2429.44L2412.44 681.5C2406.78 694.5 2403.94 705.167 2403.94 713.5C2403.94 722.167 2406.94 729 2412.94 734C2419.28 738.667 2429.28 741.667 2442.94 743V753C2432.94 752 2417.78 751.5 2397.44 751.5C2377.11 751.5 2362.61 752 2353.94 753V743C2362.94 740.667 2370.61 735.667 2376.94 728C2383.28 720 2389.28 709.5 2394.94 696.5L2505.44 446.5H2513.44L2630.44 711ZM2546.94 634L2490.44 507L2433.44 634H2546.94ZM2812.05 459C2800.05 459.667 2791.22 461 2785.55 463C2780.22 465 2776.55 468.833 2774.55 474.5C2772.55 480.167 2771.55 489.333 2771.55 502V700C2771.55 712.667 2772.55 721.833 2774.55 727.5C2776.55 733.167 2780.22 737 2785.55 739C2791.22 740.667 2800.05 741.5 2812.05 741.5H2843.55C2866.55 741.5 2884.38 734.667 2897.05 721C2910.05 707.333 2917.88 684.667 2920.55 653H2932.05C2931.05 663.333 2930.55 677 2930.55 694C2930.55 711.333 2931.72 731 2934.05 753C2912.38 752 2875.88 751.5 2824.55 751.5C2762.88 751.5 2716.22 752 2684.55 753V743C2696.55 742.333 2705.22 741 2710.55 739C2716.22 737 2720.05 733.167 2722.05 727.5C2724.05 721.833 2725.05 712.667 2725.05 700V502C2725.05 489.333 2724.05 480.167 2722.05 474.5C2720.05 468.833 2716.22 465 2710.55 463C2705.22 461 2696.55 459.667 2684.55 459V449C2698.55 450 2719.88 450.5 2748.55 450.5C2775.22 450.5 2796.38 450 2812.05 449V459ZM3107.67 449C3159.67 449 3198.67 461.667 3224.67 487C3251 512 3264.17 548.667 3264.17 597C3264.17 628.333 3257.84 655.833 3245.17 679.5C3232.5 702.833 3214 721 3189.67 734C3165.67 746.667 3136.84 753 3103.17 753L3074.17 752.5C3055.5 751.833 3041.84 751.5 3033.17 751.5C3005.84 751.5 2985.17 752 2971.17 753V743C2983.17 742.333 2991.84 741 2997.17 739C3002.84 737 3006.67 733.167 3008.67 727.5C3010.67 721.833 3011.67 712.667 3011.67 700V502C3011.67 489.333 3010.67 480.167 3008.67 474.5C3006.67 468.833 3002.84 465 2997.17 463C2991.84 461 2983.17 459.667 2971.17 459V449C2982.84 450 2999 450.5 3019.67 450.5L3062.17 450C3084.84 449.333 3100 449 3107.67 449ZM3095.17 458C3084.84 458 3077 459.167 3071.67 461.5C3066.67 463.833 3063.17 468 3061.17 474C3059.17 480 3058.17 489 3058.17 501V701C3058.17 713 3059.17 722 3061.17 728C3063.17 734 3066.67 738.167 3071.67 740.5C3077 742.833 3085 744 3095.67 744C3126 744 3149.84 738.667 3167.17 728C3184.5 717 3196.67 701 3203.67 680C3210.67 659 3214.17 632 3214.17 599C3214.17 550.333 3205.17 514.667 3187.17 492C3169.17 469.333 3138.5 458 3095.17 458ZM3435.58 459C3423.58 459.667 3414.75 461 3409.08 463C3403.75 465 3400.08 468.833 3398.08 474.5C3396.08 480.167 3395.08 489.333 3395.08 502V700C3395.08 712.667 3396.08 721.833 3398.08 727.5C3400.08 733.167 3403.75 737 3409.08 739C3414.75 741 3423.58 742.333 3435.58 743V753C3420.25 752 3399.08 751.5 3372.08 751.5C3343.42 751.5 3322.08 752 3308.08 753V743C3320.08 742.333 3328.75 741 3334.08 739C3339.75 737 3343.58 733.167 3345.58 727.5C3347.58 721.833 3348.58 712.667 3348.58 700V502C3348.58 489.333 3347.58 480.167 3345.58 474.5C3343.58 468.833 3339.75 465 3334.08 463C3328.75 461 3320.08 459.667 3308.08 459V449C3322.08 450 3343.42 450.5 3372.08 450.5C3398.75 450.5 3419.92 450 3435.58 449V459Z" fill="white"/>
<rect width="908" height="1089" rx="86" fill="black"/>
<path fill-rule="evenodd" clip-rule="evenodd" d="M747.836 662.992C706.905 708.468 655.395 740.4 599.067 755.22C542.738 770.039 483.81 767.162 428.868 746.91C373.927 726.658 325.138 689.829 287.954 640.54C250.77 591.25 226.658 531.443 218.311 467.803C209.965 404.162 217.713 339.197 240.691 280.168C263.669 221.14 300.97 170.374 348.425 133.546C395.88 96.717 451.62 75.2771 509.412 71.6222C515.953 71.2086 522.191 71.0001 528.185 71H528.197C575.169 71.0011 607.19 83.7956 652.335 110.937L592.409 177.336C508.225 124.841 414.871 115.563 348.243 162.212C247.524 232.729 246.022 404.346 344.888 545.528C443.754 686.711 605.55 743.995 706.269 673.477C732.704 654.969 752.304 629.497 765.049 599.439H620.779L663.085 538.412H848.958V837.306C848.958 837.306 849.053 843.04 848.958 848.32C848.933 849.728 848.894 851.104 848.836 852.33C845.403 925.284 729.32 981.205 729.32 981.205C729.32 981.205 786.703 931.992 789.076 881.156C789.354 875.195 789.312 866.086 789.312 866.086V599.439H783.914C775.502 623.513 766.491 639.548 747.836 662.992ZM163.024 921.114C126.491 978.118 59 1019 59 1019C59 1019 98.8854 979.088 117.914 920.19C118.243 919.172 118.563 918.194 118.876 917.235C120.376 912.647 121.726 908.518 123.154 902.841C126.238 890.579 126.274 825.026 126.275 823.464V238.824C126.275 238.824 126.275 233.731 120.38 231.196C115.473 229.086 103.122 238.173 99.1152 241.282C76.9886 259.345 59.3468 270.031 59.3468 270.031C59.3468 270.031 98.8285 230.523 117.97 172.116L116.745 175.747C116.745 175.747 133.946 131.897 147.428 120.238C160.259 109.142 171.356 109.142 171.356 109.142C171.356 109.142 183.276 109.142 189.218 120.238C197.017 134.801 197.017 153.525 197.017 153.525V700.762C197.017 700.762 197.017 774.545 189.735 817.888C188.851 823.15 187.943 828.191 187.015 833.02C192.021 825.956 197.658 819.734 203.953 815.114C241.751 787.375 289.953 787.375 289.953 787.375H706.803C716.086 787.378 725.277 789.527 733.854 793.699C742.437 797.875 750.235 803.995 756.804 811.71C763.373 819.425 768.584 828.585 772.14 838.665C775.613 848.514 777.439 859.054 777.522 869.71C777.496 871.349 777.458 872.946 777.403 874.376C773.969 962.664 660.313 1009.29 660.313 1009.29C660.313 1009.29 715.269 970.782 717.642 909.261C717.753 906.369 717.814 902.866 717.846 899.705C717.064 878.296 702.473 861.229 684.588 861.229H261.502L261.522 861.231C261.522 861.231 228.578 861.231 200.49 882.036C184.627 893.785 170.472 911.17 163.024 921.114Z" fill="#FFD900"/>
</svg>
